<?xml version="1.0" encoding="UTF-8"?>
<svg xmlns="http://www.w3.org/2000/svg" xmlns:xlink="http://www.w3.org/1999/xlink" width="24px" height="24px" viewBox="0 0 24 24" version="1.1">
<g id="surface1">
<path style=" stroke:none;fill-rule:nonzero;fill:rgb(0%,0%,0%);fill-opacity:1;" d="M 12 0 C 6.070312 0 1.253906 4.816406 1.253906 10.746094 C 1.253906 14.035156 2.734375 16.984375 5.070312 18.953125 L 9.578125 11.15625 L 9.183594 10.765625 C 9.070312 10.652344 9.011719 10.554688 9.011719 10.464844 L 9 10.433594 L 9 7.875 C 9 7.257812 9.507812 6.753906 10.125 6.753906 L 10.761719 6.753906 L 10.761719 4.738281 L 13.25 4.738281 L 13.25 6.753906 L 13.875 6.753906 C 14.5 6.753906 15 7.257812 15.011719 7.886719 L 15.011719 10.421875 L 15 10.421875 L 15 10.433594 L 14.996094 10.433594 C 14.996094 10.519531 14.945312 10.632812 14.824219 10.757812 L 14.816406 10.765625 L 14.421875 11.15625 L 16.355469 14.496094 C 17.226562 13.480469 17.753906 12.171875 17.753906 10.746094 L 19.757812 10.746094 C 19.757812 12.925781 18.847656 14.898438 17.402344 16.304688 L 18.929688 18.957031 C 21.265625 16.984375 22.746094 14.035156 22.746094 10.746094 C 22.757812 4.804688 17.941406 0 12 0 Z M 18.929688 18.957031 C 18.417969 19.390625 17.863281 19.777344 17.28125 20.105469 L 18.796875 22.734375 C 18.847656 22.816406 18.914062 22.890625 18.996094 22.9375 L 20.5 23.964844 C 20.558594 24.003906 20.628906 24.003906 20.683594 23.976562 C 20.746094 23.9375 20.773438 23.878906 20.773438 23.808594 L 20.617188 22.003906 C 20.605469 21.90625 20.578125 21.816406 20.53125 21.730469 Z M 17.28125 20.105469 L 15.78125 17.519531 C 14.628906 18.164062 13.332031 18.503906 12.011719 18.503906 C 10.6875 18.503906 9.390625 18.164062 8.238281 17.519531 L 6.738281 20.113281 C 8.292969 20.992188 10.089844 21.496094 12 21.496094 C 13.917969 21.496094 15.71875 20.988281 17.28125 20.105469 Z M 6.738281 20.113281 C 6.144531 19.78125 5.585938 19.394531 5.066406 18.957031 L 3.46875 21.71875 C 3.421875 21.808594 3.394531 21.894531 3.382812 21.992188 L 3.246094 23.808594 C 3.234375 23.878906 3.277344 23.9375 3.335938 23.972656 C 3.394531 24.011719 3.460938 24.003906 3.519531 23.964844 L 5.023438 22.949219 C 5.101562 22.890625 5.167969 22.824219 5.21875 22.746094 Z M 12 7.726562 L 12 7.746094 C 11.171875 7.746094 10.507812 8.410156 10.507812 9.246094 C 10.507812 10.078125 11.179688 10.746094 12 10.746094 L 12.011719 10.746094 C 12.828125 10.734375 13.5 10.074219 13.503906 9.246094 C 13.5 8.417969 12.828125 7.757812 12.011719 7.746094 Z M 11.050781 12.632812 L 9.234375 15.78125 C 10.082031 16.246094 11.03125 16.492188 12 16.492188 C 13.007812 16.492188 13.953125 16.238281 14.757812 15.789062 L 12.941406 12.640625 L 12.566406 13.015625 C 12.417969 13.171875 12.214844 13.246094 12.011719 13.246094 L 11.988281 13.246094 C 11.792969 13.246094 11.589844 13.171875 11.433594 13.015625 Z M 11.050781 12.632812 "/>
</g>
</svg>
