<?xml version="1.0" encoding="UTF-8"?>
<svg xmlns="http://www.w3.org/2000/svg" xmlns:xlink="http://www.w3.org/1999/xlink" width="24px" height="24px" viewBox="0 0 24 24" version="1.1">
<g id="surface1">
<path style=" stroke:none;fill-rule:nonzero;fill:rgb(33.725491%,23.921569%,48.627451%);fill-opacity:1;" d="M 0 20.90625 C 0 22.613281 1.386719 24 3.09375 24 L 20.90625 24 C 22.613281 24 24 22.613281 24 20.90625 L 24 3.09375 C 24 1.386719 22.613281 0 20.90625 0 L 3.09375 0 C 1.386719 0 0 1.386719 0 3.09375 Z M 0 20.90625 "/>
<path style=" stroke:none;fill-rule:nonzero;fill:rgb(100%,100%,100%);fill-opacity:1;" d="M 9.953125 10.617188 L 9.953125 7.21875 L 12.945312 7.21875 C 13.230469 7.21875 13.503906 7.242188 13.769531 7.289062 C 14.03125 7.335938 14.265625 7.421875 14.46875 7.542969 C 14.675781 7.664062 14.835938 7.835938 14.957031 8.050781 C 15.082031 8.269531 15.140625 8.546875 15.140625 8.886719 C 15.140625 9.496094 14.957031 9.9375 14.59375 10.210938 C 14.226562 10.480469 13.757812 10.617188 13.1875 10.617188 Z M 6.757812 4.734375 L 6.757812 19.265625 L 13.796875 19.265625 C 14.449219 19.265625 15.085938 19.183594 15.703125 19.019531 C 16.320312 18.859375 16.867188 18.609375 17.351562 18.269531 C 17.832031 17.929688 18.214844 17.492188 18.5 16.957031 C 18.785156 16.417969 18.925781 15.785156 18.925781 15.054688 C 18.925781 14.144531 18.707031 13.367188 18.265625 12.722656 C 17.824219 12.078125 17.15625 11.625 16.261719 11.367188 C 16.914062 11.058594 17.40625 10.65625 17.738281 10.167969 C 18.070312 9.679688 18.234375 9.070312 18.234375 8.335938 C 18.234375 7.660156 18.125 7.089844 17.898438 6.628906 C 17.675781 6.164062 17.359375 5.796875 16.953125 5.519531 C 16.546875 5.238281 16.058594 5.039062 15.488281 4.917969 C 14.917969 4.796875 14.289062 4.734375 13.59375 4.734375 Z M 9.953125 16.78125 L 9.953125 12.792969 L 13.433594 12.792969 C 14.125 12.792969 14.679688 12.953125 15.101562 13.273438 C 15.523438 13.589844 15.730469 14.125 15.730469 14.871094 C 15.730469 15.25 15.667969 15.5625 15.539062 15.804688 C 15.410156 16.050781 15.238281 16.242188 15.019531 16.386719 C 14.804688 16.527344 14.550781 16.628906 14.265625 16.691406 C 13.980469 16.753906 13.683594 16.78125 13.371094 16.78125 Z M 9.953125 16.78125 "/>
</g>
</svg>
