<?xml version="1.0" encoding="UTF-8"?>
<svg xmlns="http://www.w3.org/2000/svg" xmlns:xlink="http://www.w3.org/1999/xlink" width="24px" height="24px" viewBox="0 0 24 24" version="1.1">
<g id="surface1">
<path style=" stroke:none;fill-rule:nonzero;fill:rgb(6.666667%,44.705883%,72.156864%);fill-opacity:1;" d="M 4.5 21 L 3 2.25 L 21 2.25 L 19.5 21 L 12 23.25 Z M 4.5 21 "/>
<path style=" stroke:none;fill-rule:nonzero;fill:rgb(20%,66.666669%,86.666667%);fill-opacity:1;" d="M 19.5 3.75 L 12 3.75 L 12 22.125 L 18 20.25 Z M 19.5 3.75 "/>
<path style=" stroke:none;fill-rule:nonzero;fill:rgb(100%,100%,100%);fill-opacity:1;" d="M 14.625 13.125 L 7.125 13.125 L 6.75 10.5 L 12.75 8.625 L 6.75 8.625 L 6.375 6.375 L 18 6.375 L 17.625 9 L 12.75 10.875 L 17.25 10.875 L 16.5 18 L 12 19.5 L 7.5 18 L 7.125 14.25 L 9.375 14.25 L 9.75 16.125 L 12 16.875 L 14.25 16.125 Z M 14.625 13.125 "/>
</g>
</svg>
