<?xml version="1.0" encoding="UTF-8"?>
<svg xmlns="http://www.w3.org/2000/svg" xmlns:xlink="http://www.w3.org/1999/xlink" width="24px" height="24px" viewBox="0 0 24 24" version="1.1">
<g id="surface1">
<path style=" stroke:none;fill-rule:nonzero;fill:rgb(100%,17.647059%,12.54902%);fill-opacity:1;" d="M 23.625 5.421875 C 23.632812 5.453125 23.636719 5.484375 23.636719 5.519531 L 23.636719 10.660156 C 23.636719 10.792969 23.566406 10.917969 23.449219 10.984375 L 19.132812 13.472656 L 19.132812 18.394531 C 19.132812 18.53125 19.058594 18.652344 18.945312 18.722656 L 9.933594 23.910156 C 9.914062 23.921875 9.890625 23.925781 9.867188 23.933594 C 9.859375 23.9375 9.851562 23.945312 9.84375 23.945312 C 9.78125 23.960938 9.714844 23.960938 9.652344 23.945312 C 9.640625 23.941406 9.632812 23.9375 9.621094 23.933594 C 9.601562 23.925781 9.578125 23.917969 9.558594 23.910156 L 0.550781 18.722656 C 0.4375 18.65625 0.363281 18.53125 0.363281 18.394531 L 0.363281 2.96875 C 0.363281 2.933594 0.367188 2.902344 0.375 2.871094 C 0.378906 2.859375 0.386719 2.851562 0.390625 2.839844 C 0.398438 2.820312 0.402344 2.800781 0.414062 2.78125 C 0.421875 2.769531 0.429688 2.757812 0.441406 2.746094 C 0.449219 2.734375 0.460938 2.71875 0.472656 2.703125 C 0.484375 2.691406 0.496094 2.683594 0.511719 2.675781 C 0.523438 2.664062 0.535156 2.652344 0.550781 2.644531 L 5.054688 0.0507812 C 5.171875 -0.015625 5.316406 -0.015625 5.429688 0.0507812 L 9.933594 2.644531 L 9.9375 2.644531 C 9.949219 2.652344 9.964844 2.664062 9.976562 2.675781 C 9.988281 2.683594 10.003906 2.691406 10.011719 2.703125 C 10.027344 2.71875 10.035156 2.734375 10.046875 2.746094 C 10.054688 2.757812 10.066406 2.769531 10.074219 2.78125 C 10.082031 2.800781 10.089844 2.820312 10.097656 2.839844 C 10.101562 2.851562 10.105469 2.859375 10.109375 2.871094 C 10.117188 2.902344 10.125 2.9375 10.125 2.96875 L 10.125 12.605469 L 13.875 10.445312 L 13.875 5.515625 C 13.875 5.484375 13.882812 5.453125 13.890625 5.421875 C 13.894531 5.410156 13.898438 5.398438 13.902344 5.386719 C 13.910156 5.367188 13.917969 5.347656 13.925781 5.328125 C 13.933594 5.316406 13.945312 5.308594 13.953125 5.296875 C 13.964844 5.28125 13.972656 5.265625 13.988281 5.253906 C 13.996094 5.242188 14.011719 5.234375 14.023438 5.226562 C 14.035156 5.214844 14.050781 5.203125 14.0625 5.191406 L 14.066406 5.191406 L 18.570312 2.597656 C 18.683594 2.53125 18.828125 2.53125 18.945312 2.597656 L 23.449219 5.191406 C 23.464844 5.203125 23.476562 5.214844 23.492188 5.222656 C 23.503906 5.234375 23.515625 5.242188 23.527344 5.253906 C 23.539062 5.265625 23.550781 5.28125 23.558594 5.296875 C 23.570312 5.308594 23.578125 5.316406 23.585938 5.328125 C 23.597656 5.347656 23.601562 5.367188 23.609375 5.386719 C 23.613281 5.398438 23.621094 5.410156 23.625 5.421875 Z M 22.886719 10.445312 L 22.886719 6.167969 L 21.308594 7.074219 L 19.132812 8.328125 L 19.132812 12.605469 Z M 18.382812 18.179688 L 18.382812 13.898438 L 16.238281 15.125 L 10.121094 18.613281 L 10.121094 22.933594 Z M 1.113281 3.617188 L 1.113281 18.179688 L 9.371094 22.933594 L 9.371094 18.613281 L 5.058594 16.171875 L 5.054688 16.171875 C 5.039062 16.164062 5.027344 16.152344 5.015625 16.140625 C 5.003906 16.132812 4.988281 16.125 4.980469 16.113281 L 4.976562 16.113281 C 4.964844 16.101562 4.957031 16.085938 4.945312 16.074219 C 4.9375 16.058594 4.925781 16.050781 4.917969 16.035156 C 4.910156 16.019531 4.90625 16.003906 4.898438 15.988281 C 4.894531 15.972656 4.882812 15.960938 4.882812 15.945312 C 4.875 15.925781 4.875 15.910156 4.875 15.890625 C 4.871094 15.875 4.867188 15.863281 4.867188 15.847656 L 4.867188 5.777344 L 2.691406 4.523438 Z M 5.242188 0.808594 L 1.492188 2.96875 L 5.242188 5.128906 L 8.996094 2.96875 Z M 7.195312 14.289062 L 9.371094 13.035156 L 9.371094 3.617188 L 7.796875 4.523438 L 5.617188 5.777344 L 5.617188 15.199219 Z M 18.757812 3.359375 L 15.003906 5.519531 L 18.757812 7.679688 L 22.507812 5.515625 Z M 18.382812 8.328125 L 16.203125 7.074219 L 14.628906 6.167969 L 14.628906 10.445312 L 16.804688 11.695312 L 18.382812 12.605469 Z M 9.746094 17.964844 L 15.25 14.824219 L 18.003906 13.253906 L 14.253906 11.09375 L 9.933594 13.578125 L 6 15.84375 Z M 9.746094 17.964844 "/>
</g>
</svg>
