<?xml version="1.0" encoding="UTF-8"?>
<svg xmlns="http://www.w3.org/2000/svg" xmlns:xlink="http://www.w3.org/1999/xlink" width="24px" height="24px" viewBox="0 0 24 24" version="1.1">
<defs>
<radialGradient id="radial0" gradientUnits="userSpaceOnUse" cx="-16.114" cy="20.532" fx="-16.114" fy="20.532" r="18.384001" gradientTransform="matrix(0.75,0,0,0.75,19.89,-6.98025)">
<stop offset="0" style="stop-color:rgb(100%,100%,100%);stop-opacity:1;"/>
<stop offset="0.5" style="stop-color:rgb(29.803922%,41.960784%,58.823529%);stop-opacity:1;"/>
<stop offset="1" style="stop-color:rgb(13.72549%,12.156863%,12.54902%);stop-opacity:1;"/>
</radialGradient>
</defs>
<g id="surface1">
<path style=" stroke:none;fill-rule:nonzero;fill:url(#radial0);" d="M 22.5 12 C 22.5 8.949219 17.800781 6.476562 12 6.476562 C 6.199219 6.476562 1.5 8.949219 1.5 12 C 1.5 15.050781 6.199219 17.523438 12 17.523438 C 17.800781 17.523438 22.5 15.050781 22.5 12 Z M 22.5 12 "/>
<path style=" stroke:none;fill-rule:nonzero;fill:rgb(38.431373%,50.196081%,71.372551%);fill-opacity:1;" d="M 22.089844 12 C 22.089844 9.175781 17.574219 6.886719 12 6.886719 C 6.425781 6.886719 1.910156 9.175781 1.910156 12 C 1.910156 14.824219 6.425781 17.113281 12 17.113281 C 17.574219 17.113281 22.089844 14.824219 22.089844 12 Z M 22.089844 12 "/>
<path style=" stroke:none;fill-rule:nonzero;fill:rgb(100%,100%,100%);fill-opacity:1;" d="M 14.042969 13.648438 L 14.542969 11.074219 C 14.6875 10.625 14.582031 10.132812 14.265625 9.785156 C 13.828125 9.476562 13.296875 9.335938 12.765625 9.390625 L 11.898438 9.390625 L 12.148438 8.117188 L 10.789062 7.921875 L 10.09375 10.789062 C 10.054688 10.496094 9.929688 10.222656 9.738281 10 C 9.300781 9.5625 8.699219 9.34375 8.085938 9.394531 L 5.773438 9.394531 L 4.539062 15.0625 L 5.902344 15.253906 L 6.324219 13.785156 L 7.222656 13.785156 C 7.621094 13.792969 8.015625 13.746094 8.398438 13.632812 C 8.722656 13.527344 9.015625 13.351562 9.261719 13.117188 C 9.464844 12.933594 9.636719 12.71875 9.773438 12.484375 L 9.554688 13.589844 L 10.917969 13.785156 L 11.667969 10.613281 L 12.488281 10.613281 C 12.839844 10.613281 12.941406 10.683594 12.96875 10.714844 C 13 10.746094 13.042969 10.839844 12.988281 11.140625 L 12.511719 13.589844 L 13.886719 13.785156 Z M 8.496094 11.523438 C 8.460938 11.839844 8.3125 12.128906 8.078125 12.34375 C 7.78125 12.527344 7.4375 12.609375 7.089844 12.585938 L 6.554688 12.585938 L 6.941406 10.597656 L 7.632812 10.597656 C 8.140625 10.597656 8.34375 10.703125 8.429688 10.796875 C 8.554688 11.015625 8.582031 11.28125 8.496094 11.523438 Z M 8.496094 11.523438 "/>
<path style=" stroke:none;fill-rule:nonzero;fill:rgb(100%,100%,100%);fill-opacity:1;" d="M 19.160156 10 C 18.726562 9.5625 18.121094 9.34375 17.507812 9.394531 L 15.191406 9.394531 L 13.953125 15.0625 L 15.320312 15.257812 L 15.742188 13.785156 L 16.644531 13.785156 C 17.039062 13.796875 17.4375 13.746094 17.820312 13.636719 C 18.140625 13.527344 18.4375 13.351562 18.683594 13.117188 C 19.101562 12.738281 19.386719 12.230469 19.488281 11.671875 C 19.652344 11.09375 19.53125 10.472656 19.160156 10 Z M 17.910156 11.523438 C 17.871094 11.839844 17.722656 12.128906 17.488281 12.34375 C 17.191406 12.527344 16.847656 12.609375 16.5 12.582031 L 15.96875 12.582031 L 16.355469 10.59375 L 17.042969 10.59375 C 17.550781 10.59375 17.757812 10.703125 17.839844 10.792969 C 17.964844 11.015625 17.992188 11.28125 17.910156 11.523438 Z M 17.910156 11.523438 "/>
<path style=" stroke:none;fill-rule:nonzero;fill:rgb(0%,0%,1.568628%);fill-opacity:1;" d="M 7.632812 10.429688 C 7.960938 10.390625 8.289062 10.480469 8.550781 10.683594 C 8.71875 10.941406 8.757812 11.261719 8.65625 11.554688 C 8.613281 11.910156 8.445312 12.234375 8.175781 12.472656 C 7.855469 12.679688 7.472656 12.777344 7.089844 12.75 L 6.355469 12.75 L 6.808594 10.433594 Z M 4.695312 15.09375 L 5.902344 15.09375 L 6.1875 13.621094 L 7.21875 13.621094 C 7.601562 13.632812 7.980469 13.582031 8.34375 13.476562 C 8.644531 13.378906 8.917969 13.214844 9.148438 12.996094 C 9.542969 12.640625 9.808594 12.164062 9.90625 11.640625 C 10.058594 11.113281 9.953125 10.542969 9.617188 10.109375 C 9.214844 9.710938 8.65625 9.507812 8.089844 9.558594 L 5.773438 9.558594 Z M 4.695312 15.09375 "/>
<path style=" stroke:none;fill-rule:nonzero;fill:rgb(0%,0%,1.568628%);fill-opacity:1;" d="M 10.789062 8.085938 L 11.992188 8.085938 L 11.699219 9.558594 L 12.765625 9.558594 C 13.253906 9.507812 13.746094 9.632812 14.152344 9.910156 C 14.425781 10.21875 14.515625 10.652344 14.382812 11.046875 L 13.882812 13.621094 L 12.667969 13.621094 L 13.144531 11.171875 C 13.210938 10.984375 13.1875 10.773438 13.082031 10.601562 C 12.910156 10.476562 12.695312 10.425781 12.484375 10.453125 L 11.527344 10.453125 L 10.910156 13.625 L 9.710938 13.625 Z M 10.789062 8.085938 "/>
<path style=" stroke:none;fill-rule:nonzero;fill:rgb(0%,0%,1.568628%);fill-opacity:1;" d="M 17.046875 10.429688 C 17.371094 10.390625 17.703125 10.480469 17.960938 10.683594 C 18.128906 10.941406 18.167969 11.261719 18.070312 11.554688 C 18.027344 11.910156 17.855469 12.234375 17.589844 12.472656 C 17.265625 12.679688 16.882812 12.777344 16.5 12.75 L 15.765625 12.75 L 16.214844 10.433594 Z M 14.109375 15.09375 L 15.3125 15.09375 L 15.597656 13.621094 L 16.632812 13.621094 C 17.011719 13.632812 17.390625 13.582031 17.757812 13.476562 C 18.058594 13.378906 18.332031 13.214844 18.558594 12.996094 C 18.953125 12.640625 19.222656 12.164062 19.316406 11.640625 C 19.46875 11.113281 19.363281 10.542969 19.027344 10.109375 C 18.625 9.710938 18.066406 9.507812 17.503906 9.558594 L 15.183594 9.558594 Z M 14.109375 15.09375 "/>
</g>
</svg>
